<?xml version="1.0" encoding="UTF-8" standalone="no"?>
<svg
   viewBox="0 0 242.73 270.62"
   width="242.73"
   height="270.62"
   xmlns="http://www.w3.org/2000/svg">
  <defs
     id="defs1">
    <style
       type="text/css"
       id="style1">.cls-tb-24-1{fill:#000;}.cls-tb-24-1,.cls-tb-24-2{stroke-width:0px;}.cls-tb-24-2{fill:#5b2994;}
</style>
  </defs>
  <path
     class="cls-tb-24-2"
     d="m 80.7,183.44 c 11.52,-10.73 27.99,-23.03 48.36,-34.78 1.82,3.81 2.93,8.04 3.03,12.54 0.32,16.72 -12.93,30.53 -29.62,30.89 -8.43,0.16 -16.16,-3.17 -21.76,-8.65 m 70.26,3.5 c 54.01,-29.89 72.83,-56.77 67.66,-69.54 -4.15,-10.26 -39.68,-2.56 -89.13,23.97 -48.31,25.93 -76.77,55.91 -72.5,64.83 4.52,9.45 54.13,2.8 93.97,-19.26 M 49.37,24.54 50.76,22.88 v 0 C 20.02,44.99 0,81.08 0,121.84 c 0,0.04 0,0.08 0,0.12 v 98.75 c 0,0 37.15,0 37.15,0 0,0 -1.21,-0.41 -1.32,-0.44 -5.46,-1.97 -7.46,-3.67 -9.71,-5.97 -4.63,-4.73 -11.28,-24.57 33.25,-64.73 11.33,-10.22 28.1,-21.86 45.28,-31.94 5.28,-3.09 10.35,-5.89 12.77,-7.27 -7.24,0.64 -19.78,5.73 -30.2,11.19 -13.42,7.03 -41.62,25.27 -51.99,36.46 -0.13,-2 -0.48,-5.37 -2.7,-15.67 -2.1,-9.74 -8.22,-28.2 -7.3,-49.01 1.01,-22.76 9.77,-35.86 18.6,-45.59 2.06,-2.26 5.94,-6.3 4.66,-9.84 -1.99,-5.27 -2.41,-9.21 0.86,-13.36 m 183.99,62.1 c 4.37,1.93 6.12,3.61 6.16,3.65 C 225.6,38.3 178.17,0 121.81,0 102.73,0 84.66,4.4 68.58,12.22 c 0,0 1.52,-0.45 2.31,-0.59 6.09,-1.12 9.06,1.91 12.98,7.07 1.94,2.55 7.44,1.98 10.13,1.51 5.02,-0.88 17.18,-2.76 33.02,1.83 33.12,9.61 53.8,45.96 69.33,54.46 8.55,4.68 16.24,5.08 23.78,6.5 5.87,1.1 10.21,2.32 13.2,3.64 M 84.67,220.72 h 158.06 v -98.88 c 0,-5.42 -0.29,-8.38 -0.29,-8.38 -13.15,45.89 -95.57,96.92 -157.76,107.26"
     id="path1" />
  <path
     d="m 72.509766,236.42969 c -11.14,0 -17.039063,7.64984 -17.039063,17.08984 0,9.44 5.849453,17.09961 16.939453,17.09961 6.47,0 10.769844,-2.5 13.839844,-6 l -6.660156,-4.95898 c -1.42,1.94 -3.779141,3.5 -7.369141,3.5 -5.29,0 -8.300781,-4.06086 -8.300781,-9.63086 0,-5.57 3.109844,-9.72852 8.589844,-9.72852 3.21,0 5.339375,1.60984 6.609375,3.58984 l 6.521484,-4.67968 c -2.93,-3.68 -6.990859,-6.28125 -13.130859,-6.28125 z m 31.080074,0 c -10.529996,0 -16.910153,7.64984 -16.910153,17.08984 0,9.44 6.380157,17.09961 16.910153,17.09961 10.53,0 16.85938,-7.64961 16.85938,-17.09961 0,-9.45 -6.41938,-17.08984 -16.85938,-17.08984 z M 0.22070313,236.99023 v 6.94922 H 10.320313 v 26.11133 h 8.029296 V 243.93945 H 28.5 v -6.94922 z m 36.33007787,0 -14.070312,33.06055 h 8.5 l 1.839843,-4.82031 h 13.269532 l 1.800781,4.82031 h 8.929687 L 43.310547,236.99023 h -0.0098 z M 132.5,237 v 33.06055 h 14.35937 c 8.40001,0 12.47071,-3.07024 12.47071,-9.49024 0,-4.44 -2.49969,-7.41039 -7.17969,-8.40039 v -0.01 c 3.16,-1.56 4.58008,-3.6811 4.58008,-7.3711 C 156.73047,239.87906 152.86,237 145.25,237 Z m 29.94922,0 v 33.05078 h 25.16992 v -6.94141 h -17.13867 v -6.41992 h 13.98047 v -6.70898 h -13.98047 v -6.04102 h 16.75976 V 237 Z m 30.21094,0 v 33.05078 h 22.61914 v -6.94141 H 200.68945 V 237 Z m 27.3789,0 v 33.05078 h 22.6211 v -6.94141 H 228.06055 V 237 Z m -79.92969,6.41992 h 3.16016 c 3.87,0 5.42969,0.80016 5.42969,3.16016 0,2.5 -1.5093,3.44922 -4.5293,3.44922 h -4.06055 z m -36.51953,0.36914 c 5.33,0 8.41016,4.11047 8.41016,9.73047 0,5.62 -3.12016,9.58984 -8.41016,9.58984 -5.339996,0 -8.449215,-4.05984 -8.449215,-9.58984 0,-5.53 3.119219,-9.73047 8.449215,-9.73047 z m -63.970699,3.1211 4.011718,11.70898 h -8.310547 z m 100.480469,9.40039 h 4.91016 c 4.3,0 6.14062,0.94922 6.14062,3.44922 0,2.64 -1.42125,3.40039 -6.28125,3.40039 h -4.76953 z"
     style="stroke-width:0px"
     id="path8" />
</svg>
